<?xml version="1.0" encoding="utf-8"?>
<!-- Generator: Adobe Illustrator 19.2.1, SVG Export Plug-In . SVG Version: 6.00 Build 0)  -->
<svg version="1.1" id="layer" xmlns="http://www.w3.org/2000/svg" xmlns:xlink="http://www.w3.org/1999/xlink" x="0px" y="0px"
	 viewBox="0 0 652 652" style="enable-background:new 0 0 652 652;" xml:space="preserve">
<style type="text/css">
	.st0{fill:#231815;}
</style>
<path class="st0" d="M88.6,263.3v21.6H74.7c-40.9,0-49.4,30.6-49.4,52.6c0,16.1,4.9,30.1,13.7,39.4c7.6,7.9,17.8,12.1,29.5,12.1
	c7.9,0,14.4-1.5,20-4.4l0.1,2.2h27V263.3H88.6z M51.1,336.8c0-10.5,3-28.1,22.5-29.5c2.7-0.2,9.8-0.7,15-0.9v54.1
	c-3.6,2.4-9.1,4.2-15.4,4.4c-6.1,0.1-11.5-1.7-15-5.1C53.5,355.3,51.1,347.5,51.1,336.8"/>
<path class="st0" d="M186.1,365.1c-14.5-0.3-22.3-8-24.8-21.8h65.5v-1.1c0.1-9.2,0-17-0.3-20.4c-1-11.6-5.2-21.4-12.2-28.2
	c-7.7-7.6-18.5-11.5-32.1-11.5c-15.6,0-28.5,5.8-37.2,16.7c-7.8,9.7-12.1,23.3-12.1,38.3c0,25,14.1,51.8,53.7,51.8
	c15.2,0,30-4.7,38.5-8.9V355C220.4,357.6,205.9,365.4,186.1,365.1 M182.2,305.3c10.1,0,17,7.1,17.7,16.1h-38.1
	C164.6,311.6,171.4,305.3,182.2,305.3"/>
<path class="st0" d="M308.6,326.5v60.4h27.1v-64.4c0-26.9-12.4-40-38-40c-8.8,0-18.5,3.3-22.2,4.7l-0.1-2.2h-27v102h27.1v-76.4
	c5.8-3.7,15-5.2,22.3-3.5C305,308.7,308.6,313.3,308.6,326.5"/>
<path class="st0" d="M565,345.2v-60.3H538v64.4c0,26.9,12.5,40,38,40c8.8,0,18.5-3.3,22.2-4.7l0.1,2.3h27v-102h-27.1v76.4
	c-5.8,3.7-15,5.2-22.3,3.5C568.6,363.1,565,358.5,565,345.2"/>
<path class="st0" d="M358.6,263.3v88.5c0,12.2,2.1,20.7,6.6,26.8c5.3,7.1,14,10.6,26.5,10.6c10,0,19.7-2.2,25.4-4v-24.4
	c-3.5,0.9-14.2,3.2-20.4,3.2c-4,0-6.8-0.8-8.4-2.5c-2.5-2.5-2.5-6.8-2.5-10.9v-43.1c10.7,0,23.9,0.7,31.4,1.6v-24h-31.4v-21.6H358.6
	z"/>
<path class="st0" d="M514.9,337.4c-5.5-7.5-13.8-11.4-29.1-14.2c-6.4-1.2-13.9-2.5-18.2-4.9c-2.1-1.1-3.2-2.8-3.2-4.6
	c0-1.8,1.3-3.4,3-4.4c4-2.1,11.2-3.2,22-1.2c10.5,1.9,22,5.9,25.7,7.5v-24.6c-12.6-6.2-23.7-8.7-36.3-8.5
	c-11.7,0.2-21.7,3.3-29.2,8.8c-7.8,5.9-12.2,14.3-12.7,24.4c-0.7,16.9,9.9,27,34.3,31.8c5.1,1,12.5,2.5,15.7,3.8
	c3.2,1.3,5,3.4,5,5.7c0,2.3-1.6,4.4-4.1,5.5c-4.6,1.9-12,1.6-16.8,1.1c-14.1-1.4-27.4-6.4-32.3-8.5v25.3c8.3,4.2,21.3,9.1,36.8,8.8
	c17.8-0.3,39.8-5.6,43.8-29C520.9,351.5,519.4,343.6,514.9,337.4"/>
</svg>
