<?xml version="1.0" encoding="UTF-8"?>
<svg width="180px" height="48px" viewBox="0 0 180 48" version="1.1" xmlns="http://www.w3.org/2000/svg" xmlns:xlink="http://www.w3.org/1999/xlink">
    <!-- Generator: Sketch 49.1 (51147) - http://www.bohemiancoding.com/sketch -->
    <title>Page 1</title>
    <desc>Created with Sketch.</desc>
    <defs>
        <polygon id="path-1" points="0 0.0190056433 179.916907 0.0190056433 179.916907 47.8442078 0 47.8442078"></polygon>
    </defs>
    <g id="Homepage" stroke="none" stroke-width="1" fill="none" fill-rule="evenodd">
        <g transform="translate(-870.000000, -36.000000)" id="Navigation">
            <g>
                <g id="Page-1" transform="translate(870.000000, 36.000000)">
                    <g id="Group-3" transform="translate(0.000000, 0.082585)">
                        <mask id="mask-2" fill="white">
                            <use xlink:href="#path-1"></use>
                        </mask>
                        <g id="Clip-2"></g>
                        <path d="M114.212204,15.8946603 C114.212915,16.0157438 114.204687,16.1369289 114.189349,16.2569966 C114.168626,16.4208454 114.134394,16.5826625 114.088886,16.7413307 C114.032103,16.939412 113.957238,17.1322111 113.867543,17.3176964 C113.759157,17.5418837 113.629033,17.755202 113.482249,17.9563307 C113.306008,18.1976851 113.105997,18.421263 112.889834,18.6273691 C112.781245,18.7309808 112.668694,18.8304278 112.552486,18.9254052 C111.522565,19.7665903 110.352565,20.2796716 109.367035,20.5486558 C109.451956,20.4377302 109.540534,20.3267032 109.632769,20.2155745 C111.594586,17.8079221 112.718672,16.5695587 113.568186,15.7964323 C113.588604,15.77764 113.612272,15.7566129 113.637058,15.7349763 C113.655647,15.7184187 113.674744,15.7007438 113.696584,15.6842878 C113.830771,15.5730576 113.991572,15.4597957 114.072633,15.4711727 C114.237193,15.4945361 114.211493,15.7736783 114.212204,15.8946603 Z M115.730624,14.1088815 C115.560782,13.9022675 115.35173,13.7288702 115.124495,13.5735542 C114.714924,13.2938025 114.246945,13.0730688 113.844687,12.8226738 L113.242114,12.4475384 C113.084258,12.3493104 112.932091,12.2251795 112.746708,12.1836332 C112.601245,12.151026 112.441053,12.142798 112.292441,12.1332494 C111.93427,12.1097844 111.546945,12.1187235 111.212644,12.2636783 C111.201471,12.2636783 110.829281,12.4590169 110.696821,12.5432269 C109.881132,13.0609808 109.098051,13.641816 108.36322,14.2692765 C107.357475,15.1279334 106.429845,16.0811614 105.610906,17.1199199 C104.597949,18.4050102 103.75199,19.8272336 103.163536,21.3563194 C102.630342,22.7416693 102.315444,24.207877 102.246877,25.6912517 C102.246877,25.6912517 102.246877,27.4593555 103.324642,29.0725497 C104.402509,30.6857438 105.399112,31.6828544 106.399371,31.6796038 C111.460703,31.6796038 114.131448,27.8856874 114.651843,27.085947 C115.172137,26.2865113 114.068468,24.976026 114.068468,24.976026 C110.050365,28.9923014 106.332938,29.0702133 106.332938,29.0702133 C106.248119,28.7493217 106.248119,28.3211614 106.248119,28.0628431 C106.248119,27.667798 106.4141,25.3972788 108.005049,22.5869628 C107.979958,22.6310485 109.325286,22.9227867 109.432656,22.9322336 C110.108672,22.991658 110.791087,22.9058228 111.435918,22.696974 C112.317735,22.4113307 113.113615,21.9055632 113.811471,21.3020756 C114.581651,20.636421 115.421414,19.8189041 115.820726,18.8657777 C116.284947,17.7575384 116.547938,16.4323239 116.269304,15.2444458 C116.172904,14.8331479 116.000319,14.4367822 115.730624,14.1088815 Z M81.4845068,13.7143442 L80.9233781,12.0700666 L80.7498792,11.5649086 C80.5396084,11.6688251 80.3328928,11.7655293 80.1335926,11.8621321 C80.1298341,11.8621321 80.1261772,11.8658905 80.1225203,11.8658905 C80.0634007,11.8844797 80.030184,11.9030688 80.030184,11.9030688 C80.030184,11.9030688 79.9194616,11.9550779 79.7054323,12.0554391 C79.6684571,12.0740282 79.6241682,12.0926174 79.5798792,12.1112065 C76.1656693,13.6098183 73.8401953,13.6800102 73.8401953,13.6800102 L73.8476106,13.7021546 C73.8033217,13.7096716 73.7590327,13.7097731 73.7110869,13.7099763 C75.2095971,10.9479108 76.563254,8.59389278 78.1799018,5.93848646 C78.190974,5.91999887 78.2020463,5.90140971 78.2094616,5.88668059 L79.3647325,4.10384763 C79.3351727,4.01171445 79.3093713,3.92313657 79.2798115,3.83466027 C79.0842698,3.24468284 78.8443375,2.79519074 78.6006467,2.45276411 C78.2721366,1.99250451 77.9399695,1.72037133 77.6963804,1.56972799 C77.688965,1.56607111 77.6853081,1.56607111 77.6815497,1.56241422 C77.5635135,1.50380248 77.4453758,1.44874605 77.3346535,1.39368962 L77.3309966,1.3937912 C77.3199244,1.39013431 77.3161659,1.39013431 77.3161659,1.39013431 C75.932035,0.763486456 74.5700485,2.43265124 73.960974,3.33508916 C72.7097099,5.61292212 70.7581524,9.1388702 68.5582314,13.1839944 C67.3882314,12.9183623 66.1849131,12.5679108 64.9890102,12.169412 C64.0034797,11.8404955 63.0141907,11.4782607 62.0582201,11.1086106 C61.8146309,11.0133284 61.5710418,10.914491 61.327351,10.8193104 C61.0764481,10.7204729 60.8254436,10.6253939 60.5780959,10.5300102 C60.0613578,10.3324368 59.5409628,10.1643217 59.0315384,10.018351 C56.975658,9.43812528 55.0119108,9.24512302 53.3473172,9.2283623 C51.6826219,9.21536005 50.3132201,9.37473928 49.3645632,9.52924266 C48.9474752,9.59699661 48.6115497,9.6645474 48.3643036,9.71706433 C48.345816,9.7208228 48.3309853,9.72447968 48.3125993,9.72823815 C48.2314368,9.75800113 48.1612449,9.79142099 48.1022269,9.82849774 C47.9029266,9.95841874 47.8105903,10.1506084 47.7699582,10.3316242 C47.7699582,10.335281 47.7663014,10.3391411 47.7663014,10.342798 C47.7294278,10.5162968 47.7403984,10.674965 47.7478138,10.7451569 C47.8955113,10.7261614 48.1280282,10.6922336 48.4085926,10.6543442 C48.6485248,10.6314887 49.0064932,10.6044684 49.4642133,10.591974 C49.7078025,10.583746 49.9809515,10.5792765 50.2836603,10.5854729 C51.0956919,10.5903488 52.1033668,10.6461163 53.2291795,10.8086445 C54.7646648,11.0288702 56.5252517,11.4512404 58.2563804,12.2059808 C58.6882991,12.3927867 59.1201163,12.5981817 59.5409628,12.8293781 C59.987509,13.0715451 60.4379153,13.321026 60.8955339,13.5706084 C61.8516061,14.0842991 62.8148905,14.5794007 63.8114932,15.0560147 C64.8007822,15.5289718 65.8084571,15.9724707 66.8345181,16.3712743 C64.9409628,19.8802585 63.2615384,23.0343217 62.4937957,24.6018047 C61.9291117,25.7478318 61.726053,26.7118273 61.7445406,27.5164436 C61.7445406,27.667798 61.7556129,27.7895926 61.7629266,27.8523691 C61.770342,27.915044 61.7776558,27.9740621 61.788728,28.0330801 C61.788728,28.0552246 61.788728,28.0774707 61.7961433,28.099412 C62.1209966,31.0291862 64.3282314,31.4021885 65.0111546,31.4443442 L65.0258837,31.4442427 C65.0966851,31.4507438 65.1461546,31.4517596 65.1766287,31.4515564 C66.05357,31.5000102 67.4548679,31.286184 68.5656467,30.5210824 C68.5693036,30.5174255 68.5693036,30.5174255 68.5730621,30.5137686 C70.4038409,28.9205858 68.7870914,27.707719 68.7870914,27.707719 C68.0009628,28.7254503 65.9930282,28.8868612 65.9930282,28.8868612 L66.4838634,27.8887348 L66.6278025,27.5929334 C67.3771591,26.0329673 69.2115948,22.2509357 71.5628702,17.7512404 C72.0979944,17.8491637 72.6295632,17.9249424 73.1537167,17.9749199 C74.187193,18.0750779 75.1911095,18.0864549 76.1103081,18.0171772 C77.5756016,17.9089944 78.8048228,17.6541298 79.7423059,17.4184639 C80.1889537,17.2324707 80.5358499,17.0024932 80.7979266,16.7396038 C81.1559966,16.3840734 81.3627122,15.981105 81.4807483,15.5858567 C81.7538973,14.6399424 81.495579,13.7512178 81.495579,13.7512178 L81.4845068,13.7143442 Z M48.0431072,19.1819966 C48.0431072,19.1783397 48.0468657,19.1783397 48.0468657,19.1745813 L48.0505226,19.1745813 C48.0505226,19.1745813 48.0468657,19.1783397 48.0431072,19.1819966 Z M37.4459628,19.3307099 C36.8148454,19.4656084 36.3275655,19.4819628 36.0729041,19.3388363 C35.3605226,18.9424707 35.1242472,17.6994345 35.0541569,16.7288363 C36.0840779,15.6329898 36.704123,15.1510937 37.3795293,14.7206986 C37.3795293,14.7206986 38.3392585,16.4229786 37.4459628,19.3307099 Z M35.7665384,22.7246038 C32.4187619,27.6593668 29.9567641,29.2323352 29.3440327,29.4299086 C28.7276445,29.6238251 28.7276445,28.5054278 28.7276445,28.0070756 C28.7276445,27.5089266 28.9971366,23.9793217 32.1123962,20.1600102 C32.8062901,19.3124255 33.3932201,18.6055293 33.9025429,18.0171772 C34.0502404,18.84343 34.4524977,19.846026 35.3790102,20.8802133 C35.6816174,21.2188815 36.0433442,21.4651117 36.4382878,21.6408454 C36.242746,21.9922111 36.0175429,22.3509921 35.7665384,22.7246038 Z M60.1978815,21.0916016 C57.9389424,24.2067596 54.5837506,26.613193 54.3697212,26.7652585 C54.4766851,26.561895 57.9685023,20.0468499 58.5701614,18.1255632 C59.1865497,16.1746151 58.9798341,14.9979108 57.2893375,14.1838476 C56.3591682,13.7329334 55.3367641,13.5332269 53.4874977,14.6096716 C52.1956016,15.3555745 50.505105,16.7268047 48.1612449,19.0634526 L50.4403984,13.8421321 C49.7354323,12.5153939 48.8495519,12.2784074 48.8495519,12.2784074 C48.760974,12.2382833 48.6723962,12.2088251 48.5838183,12.1870869 C47.192272,11.8372449 45.870816,13.6280011 45.3724639,14.4083397 C45.368807,14.4120982 45.3651501,14.4157551 45.3651501,14.4157551 C45.2876445,14.5378544 45.2285248,14.6376061 45.1916512,14.7004842 L45.0402968,14.9962856 C43.8997551,16.1443442 41.6022156,17.8408341 39.6090102,18.6372223 C39.6606129,18.0575045 39.6754436,17.4520869 39.6495406,16.8283849 C39.6495406,16.8283849 39.3431749,15.2163081 38.3429153,14.3706535 C37.3446874,13.530281 35.0449131,12.3118273 35.0357709,12.307053 C33.7071027,11.6032043 31.8826219,13.3312856 30.890895,14.1726738 C29.3308273,15.496263 27.9483217,17.0496264 26.8819334,18.7989379 C25.6216287,20.8665 24.8396648,23.2099537 24.7265045,25.6356874 C24.7265045,25.6356874 24.6890214,27.4395474 25.6401163,29.1304503 C26.5602291,30.7660937 27.2758612,31.3795361 28.8826558,31.620281 C30.528965,31.866816 31.7137957,31.2894345 33.2640102,30.1443217 C34.6366625,29.1304503 37.4718657,26.2477077 38.9113578,21.9761614 C40.0741456,21.8912404 41.2182427,21.5554165 42.0045745,21.2684526 L38.5681185,27.9383059 C38.3503307,28.5629221 38.0956693,29.9662517 39.6643713,30.8692991 C39.6680282,30.872956 39.6754436,30.8766129 39.6791005,30.8802698 C40.3804097,31.2803939 41.0669898,31.4811163 41.6501614,31.5751795 C41.75357,31.5934639 41.8531185,31.6041298 41.9491117,31.6148973 L42.4843375,30.8232833 C42.5360418,30.7566467 42.5839876,30.6862517 42.6356919,30.6086445 C42.6356919,30.6086445 42.6431072,30.5975722 42.6541795,30.5790847 C43.0638521,29.9835203 49.667272,20.3800327 53.4949131,17.7839492 C53.4949131,17.7839492 53.8528815,17.627719 53.5982201,18.2966242 C53.3878476,18.8362178 50.7081637,23.8425948 49.6783442,25.7395023 L49.5085023,26.0722788 C49.479044,26.1312968 49.4494842,26.1831027 49.4272381,26.2275948 C49.3386603,26.390123 49.2907144,26.4789041 49.2907144,26.4789041 C49.2907144,26.4789041 49.2390102,26.571342 49.1726783,26.7304165 C49.1726783,26.7340734 49.1689199,26.7413871 49.165263,26.7451456 L48.6559402,27.7359582 C48.6521817,27.7397167 48.6521817,27.7433736 48.6485248,27.7507889 C48.4418093,28.2571659 47.9656016,29.8568499 49.7078025,30.8478657 C51.3872269,31.8021095 52.8562788,31.6459808 53.1110418,31.612053 C53.1110418,31.612053 53.1509628,31.6045361 53.1516738,31.6044345 C56.8561998,30.9205971 59.8261998,27.0339379 61.1723397,23.6795587 C61.4897777,22.8887573 61.855263,21.7395813 61.4750485,21.4048747 C60.8733894,20.8753375 60.1978815,21.0916016 60.1978815,21.0916016 Z M24.8224977,4.33778668 C21.1645971,0.149028217 14.5760079,0.0190056433 14.5760079,0.0190056433 C3.90877314,0.0535428894 1.8527912,8.94475056 1.63500339,10.1118047 C1.29176411,11.9399424 2.94538713,12.0416242 2.94538713,12.0416242 L3.07449549,11.7422675 L3.5617754,10.8363758 C7.1827009,3.27627427 12.0623059,2.90256095 12.0623059,2.90256095 C6.44817494,11.8014887 0.586696388,27.2824029 0.0957595937,28.9524819 C-0.398834086,30.6187009 1.09612077,31.2598747 2.86777991,31.7154616 C4.28522912,32.0799312 5.15627878,30.4788251 5.45157223,29.8209921 C5.52542099,29.6582607 5.56239616,29.5510937 5.56239616,29.5510937 C10.0322269,18.6736896 16.9493262,5.16038262 17.5436716,3.82226749 C17.6235135,3.64165801 17.703254,3.49152257 17.7817754,3.36282054 L18.2460982,2.46718849 C18.2460982,2.46718849 18.9223172,2.60757223 19.869044,3.17672573 L19.8686377,3.17723363 C20.498333,3.57512302 21.0214707,4.15331716 21.232351,4.85432167 C21.4467867,5.56721106 21.5498905,6.42779797 21.5573059,7.16659029 C21.5877799,10.2108454 20.6604549,13.3325045 19.4835474,16.1207777 C18.7627348,17.8283397 17.8567415,19.4589041 16.7721704,20.9625948 C12.4572494,26.9487122 7.09412302,29.2767257 6.09020655,29.8188589 C6.09020655,29.8188589 7.54442777,32.7338025 11.7154097,31.4875158 C19.6032088,29.1292314 23.2057483,20.8274932 24.1653758,18.8200666 C25.1287619,16.8162968 28.4802968,8.5226851 24.8224977,4.33778668 Z M66.5557822,9.44848646 C66.6504549,9.46331716 66.7449244,9.47103725 66.8367528,9.47124041 C67.8433104,9.47225621 68.6160305,8.66347517 69.0196084,7.81203047 C69.3562449,7.10198533 69.6376219,6.36298984 69.865263,5.61119526 C70.0732991,4.92431038 70.3349695,4.10628555 70.0668995,3.39756095 C69.8764368,2.89423138 69.3572607,2.7652246 68.8645971,2.73729007 C68.3581185,2.70701919 67.7409176,2.72256095 67.3428251,2.72256095 C67.8213691,2.72256095 66.5577122,2.69198533 66.5577122,3.58578894 C66.5577122,3.58578894 66.0963352,6.82121783 65.4835023,7.90101467 C65.0057709,8.73813657 65.7894616,9.328114 66.5557822,9.44848646 Z M103.069371,15.2533849 C102.50103,13.5837122 100.953051,12.44957 99.2201953,12.2542314 C97.8582088,12.1000327 96.4666625,12.7283059 95.4109402,13.3850214 C96.9723284,10.5267596 99.1268431,6.99563093 100.865387,4.16256095 C100.311674,2.21181603 99.2930282,1.60985214 98.9387167,1.45585666 C98.8574526,1.4229447 98.8131637,1.41197404 98.8131637,1.41197404 C97.329281,0.741240406 95.8749582,2.69858804 95.3398341,3.53449097 C95.3176896,3.5716693 95.2917867,3.61219977 95.2659853,3.65283183 C95.2439424,3.69366704 95.2180395,3.73795598 95.1884797,3.7823465 C95.1699921,3.81922009 95.1478476,3.85619526 95.1220463,3.89337359 C92.2356467,8.78222235 86.0430169,19.3063307 83.2192923,25.7416354 C82.4921817,27.4012517 82.2854661,28.5684074 82.3481411,29.3986219 C82.7062111,32.055044 86.0208725,31.5940734 86.0208725,31.5940734 L86.6409176,30.4146264 L86.648333,30.3997957 C88.6968995,26.2775722 92.4217415,18.8095023 92.4217415,18.8095023 C92.4217415,18.8095023 96.400737,14.4521208 98.5558612,14.8180124 C101.090692,15.2484074 95.910105,27.7427641 87.3774752,29.9775271 C87.3958612,30.0107438 88.3472607,31.8059695 91.4406806,31.8059695 C94.8937957,31.8059695 100.150161,26.1375948 101.73085,22.3571885 C102.622419,20.2248183 103.865658,17.592877 103.069371,15.2533849 Z M179.059134,13.0008454 C178.435331,12.4971095 177.601155,12.2783059 176.999495,12.1843442 C176.778051,12.151737 176.589823,12.1339605 176.453299,12.1232946 C176.0805,12.7151005 175.711358,13.3290508 175.353288,13.9465564 C173.456076,16.7358454 167.335466,25.3340959 163.876866,27.6817144 C163.876866,27.6817144 163.507723,27.8379447 163.7698,27.1506535 C163.991347,26.5740847 168.145771,18.9765 169.596437,16.284728 C170.231313,14.5662968 169.766177,13.5527302 169.00585,12.9536106 C168.500184,12.5565339 167.86155,12.3445361 167.322769,12.2281253 C166.927723,12.1445248 166.584484,12.1124255 166.385184,12.0984074 C164.185263,15.5861614 162.489078,19.1413646 161.51462,21.3038025 C161.407554,21.5144797 161.29673,21.7216016 161.189766,21.9360372 C160.675669,22.5854391 156.287509,26.3131253 154.182058,27.6279786 C154.108514,27.6727754 154.035782,27.6890282 153.972193,27.6455519 C153.906775,27.6004503 153.953198,27.4966354 153.953198,27.4966354 C154.936087,25.7090282 158.979891,18.3084074 159.536956,16.5413194 C160.171832,14.5276964 159.957802,13.3104616 158.2155,12.4706986 C156.609924,11.6971659 154.180432,12.2621546 148.348514,18.0685767 C148.846764,16.9633849 149.22322,16.1132607 149.400376,15.7214661 L149.437249,15.6401005 C150.332272,13.6651795 151.235523,11.7433849 152.312678,9.859886 C152.853491,8.91427652 153.405274,7.97486343 153.964473,7.03991986 C154.262103,6.54258352 154.561764,6.04636456 154.862746,5.55105982 C154.993277,5.33631941 155.783773,4.35180474 155.724044,4.1413307 C155.048638,1.75907336 153.671821,1.39074379 153.671821,1.39074379 C152.184281,0.716454853 150.726301,2.6885316 150.194834,3.52087923 C147.851482,7.18964898 145.977024,11.1283172 144.151121,15.0722675 C142.303581,19.0632494 140.389812,23.0272111 138.655635,27.0693894 C137.799315,29.0653375 138.330884,30.1820079 139.194518,30.8030688 C139.936459,31.3469289 140.925647,31.5209357 141.483017,31.5782269 C141.67866,31.5995587 141.822599,31.6029108 141.885376,31.6063646 L143.29541,29.3725158 C145.469428,26.2021998 151.010523,18.4183172 154.295624,16.1891411 C154.295624,16.1891411 154.668423,16.0293555 154.398931,16.7167483 C154.123547,17.4327867 153.69945,18.1146941 153.343209,18.7917257 C152.695026,20.0234865 152.038717,21.2507777 151.38129,22.4775609 C150.622283,23.8936896 149.722994,25.2907212 149.094823,26.7703375 C148.680477,27.7467257 148.292137,29.1848973 149.049315,30.043351 C149.867035,30.969965 151.550218,31.6752359 152.80199,31.6752359 C155.693265,31.6752359 156.869868,29.81957 158.406674,28.2013984 C158.100308,29.7046828 158.480523,30.6852359 159.960647,31.3966016 C161.581053,32.1812065 164.41585,30.9945474 170.347419,25.0548521 L163.378615,39.6166693 C163.378615,39.6166693 163.275207,39.8347619 163.267893,39.8312065 C163.267893,39.8312065 162.418886,41.598193 161.680703,42.8704842 C161.268694,43.5766693 160.433705,43.6758115 159.725286,43.3893555 C159.104326,43.1381479 158.367464,42.2881253 157.760726,43.0971095 C156.606775,44.6358454 159.66901,46.9555293 161.097532,47.5857325 C163.40848,48.6026512 165.239766,46.4058792 166.328909,44.6977077 C167.582712,42.7310147 168.631121,40.6299312 169.649868,38.5347393 C170.754247,36.263509 171.799608,33.9638363 172.82638,31.6564436 C173.244891,30.716421 173.660252,29.7750779 174.075308,28.8335316 C176.138705,24.1540395 179.070207,17.6293442 179.070207,17.6293442 L179.716256,16.021737 C180.192362,14.4956986 179.760444,13.5669515 179.059134,13.0008454 Z" id="Fill-1" fill="#000000" mask="url(#mask-2)"></path>
                    </g>
                    <path d="M140.437534,1.68589503 C140.322342,1.67055643 140.188866,1.66263318 140.040457,1.66263318 L140.040356,1.66263318 L140.040356,1.35890858 L140.040254,1.66263318 C138.344374,1.66273476 134.239012,2.70575959 130.840852,6.65265576 C129.521326,8.19240745 128.744644,9.77969865 128.532748,11.3695293 C128.258177,13.4293713 128.936529,15.1349018 129.553933,16.2030169 C129.984633,16.9374413 130.945988,18.0629492 131.963719,19.2544842 C133.753561,21.3499808 135.604351,23.5168883 135.73417,24.7978138 C135.765559,25.1063126 135.732444,25.3548792 135.700344,25.5951163 C135.478188,27.2626558 133.900649,28.2580395 131.480705,28.2580395 C131.070626,28.2580395 130.644193,28.2289876 130.213392,28.1714932 C125.853674,27.5904549 122.622511,24.1946309 122.654814,22.2762901 C122.664058,21.855342 122.547951,21.6011885 122.458459,21.5342472 C122.102827,21.753965 120.940751,23.1530282 120.661913,25.2447664 C120.470536,26.6812111 121.030547,28.1017077 122.239148,29.2444842 C123.367398,30.3112788 124.956213,31.0487506 126.59785,31.2675542 C127.138764,31.3395745 127.726304,31.3760418 128.344317,31.3760418 C131.053967,31.3760418 134.07171,30.6880395 136.416687,29.5353081 C137.710209,28.8994165 138.759938,28.1491456 139.536416,27.3052178 C140.379328,26.3890666 140.879407,25.3794616 141.022635,24.3043375 C141.101868,23.7099921 141.080739,23.1232652 140.95803,22.5108386 C140.585841,20.6817867 138.272556,18.4640892 136.23171,16.5074526 C134.387218,14.7393488 132.930559,13.3427235 132.947116,12.3396196 L132.947319,12.3218431 L132.949656,12.3043713 C132.951078,12.291877 132.950367,12.2546986 132.949859,12.2273736 C132.94864,12.1632765 132.947116,12.0831298 132.958493,11.9979041 C133.157286,10.5064029 134.367003,8.86293792 136.656823,6.9735474 C138.185401,5.70410045 139.56496,5.12570316 140.199532,5.12570316 C140.245344,5.12570316 140.289328,5.1285474 140.330164,5.13382957 C140.413459,5.14500339 140.51697,5.15881828 140.611845,5.22098533 C140.677669,5.26425847 140.827297,5.39316366 140.79215,5.65666253 C140.719216,6.20306208 139.690514,7.67942777 138.353008,9.55266704 C138.052635,9.97341196 137.793403,10.3367641 137.640017,10.5653194 L137.638087,10.5679605 L137.63636,10.5707032 C137.425277,10.8713804 137.371236,11.1374187 137.357929,11.2378815 C137.337207,11.3927912 137.334464,11.5946309 137.438584,11.6776219 C137.532545,11.7526896 137.657286,11.9060756 137.907985,12.2185361 C138.42452,12.8619447 139.494667,14.1952856 140.178911,14.3065158 C140.449317,14.2360192 141.440536,13.2427686 142.757116,11.2883668 C144.013561,9.42305079 144.86724,7.71518397 144.985175,6.83103047 C145.10829,5.90715914 144.559554,4.69358126 143.51724,3.58513883 C142.545119,2.55115463 141.336315,1.80575959 140.437534,1.68589503" id="Fill-4" fill="#000000"></path>
                </g>
            </g>
        </g>
    </g>
</svg>